<svg id="svg" xmlns="http://www.w3.org/2000/svg" xmlns:xlink="http://www.w3.org/1999/xlink" width="400" height="400" viewBox="0, 0, 400,400"><g id="svgg"><path id="path0" d="M267.461 7.563 C 263.754 18.325,260.767 25.762,260.058 25.998 C 259.663 26.130,258.040 24.237,256.451 21.791 C 253.405 17.105,243.641 6.372,242.424 6.372 C 241.708 6.372,240.792 8.974,238.935 16.283 C 238.390 18.425,237.484 21.770,236.920 23.717 C 235.422 28.887,233.069 37.546,228.647 54.159 C 227.921 56.885,226.654 61.504,225.831 64.425 C 225.007 67.345,224.028 70.958,223.654 72.452 C 222.367 77.593,220.280 80.496,214.367 85.366 C 202.977 94.748,195.001 103.581,180.539 122.832 C 165.639 142.665,158.049 150.223,148.799 154.441 C 142.163 157.467,139.773 158.380,137.265 158.845 C 131.869 159.847,129.939 165.592,133.790 169.189 C 141.036 175.958,167.819 160.036,182.685 140.123 C 196.957 121.005,201.822 114.805,207.160 108.930 C 218.118 96.870,231.458 86.787,245.967 79.596 C 257.110 74.072,255.637 76.299,264.438 51.681 C 271.603 31.638,271.625 31.582,272.486 31.295 C 276.935 29.812,276.933 52.127,272.482 64.846 C 269.078 74.574,269.067 75.796,272.348 80.191 C 277.355 86.895,282.822 94.363,290.609 105.133 C 294.831 110.973,299.457 117.345,300.888 119.292 C 315.536 139.225,319.292 144.540,319.292 145.339 C 319.292 146.570,309.675 155.008,308.251 155.026 C 305.943 155.055,303.210 150.699,302.019 145.091 C 300.491 137.902,289.459 132.383,272.471 130.312 C 254.220 128.085,251.998 126.300,252.097 113.933 C 252.163 105.733,245.572 94.953,243.796 100.354 C 243.572 101.035,242.956 102.572,242.428 103.770 C 239.438 110.545,239.451 122.238,242.455 128.246 C 246.946 137.229,251.984 139.850,268.818 141.963 C 282.292 143.654,290.973 146.916,290.973 150.288 C 290.973 154.532,297.616 163.915,302.142 166.063 C 308.519 169.089,313.806 167.463,321.920 159.983 C 335.862 147.128,335.803 146.804,313.955 116.814 C 309.842 111.168,305.225 104.796,303.694 102.655 C 299.472 96.747,296.922 93.255,289.306 82.952 L 282.329 73.512 284.156 67.982 C 292.205 43.630,288.446 25.358,270.998 4.023 L 269.367 2.029 267.461 7.563 M251.131 37.212 C 254.111 42.705,254.048 43.883,250.202 54.441 C 246.453 64.737,240.884 71.209,238.138 68.462 C 237.780 68.104,243.934 44.279,246.089 37.674 C 246.634 36.006,247.080 34.147,247.080 33.545 C 247.080 31.427,248.872 33.050,251.131 37.212 M29.301 128.098 C 24.684 130.055,23.452 135.836,26.843 139.635 L 28.907 141.947 45.201 142.301 C 66.307 142.759,65.689 142.373,71.226 158.584 C 73.021 163.841,79.531 182.956,85.692 201.062 C 91.853 219.168,100.774 245.292,105.516 259.115 C 110.258 272.938,116.918 292.531,120.315 302.655 L 126.492 321.062 177.051 321.598 C 204.859 321.893,244.336 322.049,264.779 321.945 C 319.615 321.666,315.294 324.766,331.471 274.104 C 345.919 228.854,355.276 199.457,356.948 194.058 C 359.854 184.673,355.383 177.539,346.071 176.700 C 344.387 176.548,323.211 176.392,299.013 176.354 L 255.016 176.283 255.633 173.628 C 257.508 165.553,256.252 159.877,251.550 155.174 C 246.441 150.065,246.269 150.241,244.843 162.063 C 244.173 167.618,243.421 173.091,243.172 174.223 L 242.719 176.283 177.254 176.283 C 120.558 176.283,111.514 176.425,109.742 177.341 C 105.031 179.778,104.008 185.170,107.541 188.952 L 109.595 191.150 226.200 191.150 C 319.194 191.150,342.738 191.330,342.468 192.035 C 342.282 192.522,340.322 198.655,338.112 205.664 C 333.906 219.004,330.870 228.485,328.138 236.814 C 327.243 239.540,324.539 247.982,322.127 255.575 C 306.151 305.880,307.054 303.620,302.017 305.908 C 299.242 307.168,295.576 307.226,218.053 307.240 L 136.991 307.255 130.487 287.964 C 126.910 277.354,121.546 261.664,118.567 253.097 C 115.589 244.531,108.716 224.142,103.294 207.788 C 97.872 191.434,93.122 177.416,92.737 176.637 C 92.353 175.858,89.492 167.757,86.381 158.634 C 79.244 137.707,77.239 134.699,67.290 129.984 L 62.655 127.788 46.726 127.626 C 37.965 127.537,30.124 127.749,29.301 128.098 M274.178 336.356 C 258.352 338.314,245.988 354.326,248.458 369.663 C 252.467 394.559,282.323 404.257,299.394 386.208 C 318.487 366.020,301.756 332.943,274.178 336.356 M148.831 337.639 C 119.772 348.405,123.341 389.660,153.805 395.138 C 173.069 398.602,191.209 380.376,187.661 361.122 C 184.342 343.107,165.244 331.558,148.831 337.639 M166.170 350.340 C 181.475 358.147,177.124 381.279,160.062 382.811 C 139.741 384.636,133.527 356.686,152.631 349.389 C 156.248 348.008,162.452 348.443,166.170 350.340 M286.320 350.729 C 301.120 359.402,296.558 381.287,279.629 382.822 C 265.485 384.104,255.883 369.264,263.000 357.120 C 267.782 348.959,278.356 346.062,286.320 350.729 " stroke="none" fill="#000000" fill-rule="evenodd"></path></g></svg>