<svg id="svg" xmlns="http://www.w3.org/2000/svg" xmlns:xlink="http://www.w3.org/1999/xlink" width="400" height="400" viewBox="0, 0, 400,400"><g id="svgg"><path id="path0" d="M241.534 46.598 C 237.822 56.835,237.754 56.896,234.926 52.596 C 232.545 48.974,225.106 40.761,224.208 40.761 C 223.598 40.761,222.921 42.639,221.465 48.370 C 221.047 50.014,220.301 52.704,219.807 54.348 C 219.314 55.992,218.459 59.049,217.909 61.141 C 217.359 63.234,216.384 66.902,215.744 69.293 C 215.104 71.685,214.123 75.353,213.564 77.446 C 213.005 79.538,212.026 83.084,211.388 85.326 C 210.749 87.568,209.999 90.341,209.720 91.488 C 208.767 95.402,207.151 97.658,202.605 101.415 C 193.634 108.831,188.246 114.759,177.466 129.076 C 165.082 145.524,159.515 151.126,152.271 154.429 C 147.177 156.751,145.342 157.452,143.417 157.809 C 138.027 158.809,138.149 167.391,143.553 167.391 C 149.978 167.391,165.845 157.909,173.023 149.780 C 176.502 145.839,177.303 144.812,186.831 132.064 C 199.564 115.029,210.426 105.425,225.924 97.503 C 235.584 92.566,234.280 94.460,241.043 75.543 C 246.543 60.157,246.560 60.114,247.221 59.894 C 251.239 58.555,250.531 77.607,246.148 88.795 C 244.610 92.723,244.800 94.324,247.181 97.504 C 249.625 100.767,253.673 106.304,261.141 116.595 C 267.822 125.801,269.830 128.558,275.312 136.048 C 284.616 148.760,284.100 146.869,279.484 151.329 C 274.109 156.521,271.638 155.471,269.892 147.250 C 268.720 141.732,260.250 137.495,247.210 135.905 C 233.199 134.196,231.493 132.825,231.569 123.332 C 231.620 116.962,226.577 108.712,225.196 112.908 C 225.024 113.431,224.552 114.611,224.146 115.530 C 221.851 120.731,221.861 129.707,224.167 134.319 C 227.604 141.194,231.457 143.218,244.169 144.827 C 254.776 146.169,261.413 148.629,261.413 151.218 C 261.413 155.459,267.762 163.114,272.035 164.026 C 277.139 165.114,279.209 164.220,285.799 158.086 C 295.295 149.245,295.086 147.429,282.609 130.435 C 281.563 129.010,278.995 125.468,276.902 122.565 C 274.810 119.661,272.242 116.115,271.196 114.685 C 270.149 113.254,268.454 110.894,267.428 109.439 C 266.402 107.984,263.140 103.539,260.180 99.561 L 254.797 92.329 256.448 87.061 C 262.249 68.562,259.302 54.891,246.084 38.989 L 244.837 37.489 241.534 46.598 M230.827 64.436 C 233.115 68.653,233.066 69.557,230.115 77.662 C 227.236 85.566,222.961 90.534,220.853 88.425 C 220.578 88.151,225.302 69.861,226.957 64.791 C 227.375 63.510,227.717 62.083,227.717 61.620 C 227.717 59.995,229.094 61.240,230.827 64.436 M60.537 134.205 C 56.992 135.708,56.047 140.146,58.650 143.062 L 60.235 144.837 72.742 145.109 C 89.032 145.463,88.466 145.097,92.900 158.152 C 99.987 179.019,113.099 217.451,119.045 234.783 C 122.685 245.394,127.797 260.435,130.405 268.207 L 135.147 282.337 173.959 282.748 C 240.696 283.456,269.178 283.135,272.905 281.635 C 280.998 278.376,283.151 275.376,287.803 260.870 C 289.769 254.742,293.541 243.003,296.186 234.783 C 314.522 177.800,314.058 179.626,311.232 175.468 C 308.316 171.179,309.205 171.265,267.776 171.227 L 234.194 171.196 234.558 167.175 C 235.168 160.448,234.617 158.459,231.197 155.039 C 227.222 151.064,227.097 151.190,226.000 160.279 C 225.486 164.544,224.908 168.745,224.717 169.614 L 224.370 171.196 174.115 171.196 C 130.591 171.196,123.649 171.304,122.289 172.008 C 118.672 173.878,117.887 178.018,120.598 180.921 L 122.175 182.609 211.689 182.609 C 283.077 182.609,301.151 182.746,300.943 183.288 C 300.801 183.662,299.296 188.370,297.599 193.750 C 295.903 199.130,293.802 205.734,292.930 208.424 C 292.058 211.114,290.330 216.495,289.088 220.380 C 287.847 224.266,286.380 228.791,285.827 230.435 C 285.275 232.079,282.463 240.883,279.578 250.000 C 273.955 267.775,273.312 269.150,269.891 270.704 C 267.760 271.671,264.946 271.716,205.435 271.727 L 143.207 271.738 138.214 256.929 C 135.468 248.784,131.350 236.739,129.063 230.163 C 126.777 223.587,121.500 207.935,117.338 195.380 C 113.177 182.826,109.530 172.065,109.234 171.467 C 108.939 170.870,106.743 164.650,104.355 157.647 C 98.876 141.582,97.337 139.273,89.700 135.654 L 86.141 133.967 73.913 133.843 C 67.188 133.775,61.168 133.938,60.537 134.205 M248.520 294.078 C 236.337 295.585,226.886 307.862,228.783 319.714 C 231.831 338.752,254.799 346.175,267.877 332.347 C 282.534 316.849,269.691 291.458,248.520 294.078 M152.207 295.093 C 129.965 303.322,132.772 335.005,156.114 339.202 C 170.902 341.861,184.827 327.870,182.104 313.089 C 179.547 299.211,164.903 290.397,152.207 295.093 M165.606 304.812 C 177.355 310.806,174.015 328.564,160.917 329.740 C 145.318 331.140,140.547 309.684,155.212 304.083 C 157.989 303.022,162.752 303.356,165.606 304.812 M257.823 305.101 C 269.074 311.694,265.761 328.417,252.942 329.740 C 242.013 330.868,234.446 319.391,239.939 310.017 C 243.605 303.761,251.728 301.529,257.823 305.101 " stroke="none" fill="#000000" fill-rule="evenodd"></path></g></svg>